<?xml version="1.0" encoding="UTF-8" standalone="yes"?><svg xmlns="http://www.w3.org/2000/svg" xmlns:xlink="http://www.w3.org/1999/xlink" height="332pt" style="width:580px;height:332px;" version="1.1" viewBox="0 0 580 332" width="580pt"><defs><filter height="300%" id="f1" width="300%" x="-1" y="-1"><feGaussianBlur result="blurOut" stdDeviation="2.0"/><feColorMatrix in="blurOut" result="blurOut2" type="matrix" values="0 0 0 0 0 0 0 0 0 0 0 0 0 0 0 0 0 0 .4 0"/><feOffset dx="4.0" dy="4.0" in="blurOut2" result="blurOut3"/><feBlend in="SourceGraphic" in2="blurOut3" mode="normal"/></filter></defs><g><rect fill="#FEFECE" filter="url(#f1)" height="48" style="stroke: #A80036; stroke-width: 1.5;" width="105" x="186" y="154"/><ellipse cx="201" cy="170" fill="#A9DCDF" rx="11" ry="11" style="stroke: #A80036; stroke-width: 1.0;"/><path d="M202.5781,171.8125 L198.5313,171.8125 L198.1406,172.7969 L198.5313,172.7969 C198.9844,172.7969 199.125,172.8281 199.2969,172.9531 C199.5156,173.125 199.6406,173.375 199.6406,173.6563 C199.6406,173.9375 199.5,174.2344 199.2344,174.375 C199.1094,174.4688 198.8906,174.5 198.5313,174.5 L196.2656,174.5 C195.5156,174.5 195.1406,174.2188 195.1406,173.6563 C195.1406,173.3594 195.2969,173.0781 195.5469,172.9219 C195.7031,172.8125 195.8594,172.7969 196.2813,172.7969 L198.9219,166.2813 L197.8438,166.2813 C197.4063,166.2813 197.2344,166.25 197.0625,166.1406 C196.8438,165.9688 196.7031,165.7188 196.7031,165.4375 C196.7031,165.1563 196.8594,164.875 197.1094,164.7031 C197.2656,164.6094 197.3906,164.5938 197.8438,164.5938 L201.5156,164.5938 L204.9063,172.7969 C205.375,172.7969 205.5313,172.8281 205.7031,172.9688 C205.9219,173.125 206.0625,173.375 206.0625,173.6563 C206.0625,173.9375 205.9063,174.2344 205.6563,174.375 C205.5156,174.4688 205.2969,174.5 204.9375,174.5 L202.5781,174.5 C202.1563,174.5 201.9531,174.4531 201.8125,174.3281 C201.5938,174.1719 201.4531,173.9219 201.4531,173.6563 C201.4531,173.3594 201.6094,173.0781 201.8594,172.9219 C202.0156,172.8125 202.125,172.7969 202.5781,172.7969 L202.9688,172.7969 Z M201.875,170.1094 L200.5469,166.8438 L199.2031,170.1094 Z "/><text fill="#000000" font-family="sans-serif" font-size="12" font-style="italic" lengthAdjust="spacingAndGlyphs" textLength="73" x="215" y="174.1543">AbstractList</text><line style="stroke: #A80036; stroke-width: 1.5;" x1="187" x2="290" y1="186" y2="186"/><line style="stroke: #A80036; stroke-width: 1.5;" x1="187" x2="290" y1="194" y2="194"/><rect fill="#FEFECE" filter="url(#f1)" height="48" style="stroke: #A80036; stroke-width: 1.5;" width="145" x="6" y="154"/><ellipse cx="21" cy="170" fill="#A9DCDF" rx="11" ry="11" style="stroke: #A80036; stroke-width: 1.0;"/><path d="M22.5781,171.8125 L18.5313,171.8125 L18.1406,172.7969 L18.5313,172.7969 C18.9844,172.7969 19.125,172.8281 19.2969,172.9531 C19.5156,173.125 19.6406,173.375 19.6406,173.6563 C19.6406,173.9375 19.5,174.2344 19.2344,174.375 C19.1094,174.4688 18.8906,174.5 18.5313,174.5 L16.2656,174.5 C15.5156,174.5 15.1406,174.2188 15.1406,173.6563 C15.1406,173.3594 15.2969,173.0781 15.5469,172.9219 C15.7031,172.8125 15.8594,172.7969 16.2813,172.7969 L18.9219,166.2813 L17.8438,166.2813 C17.4063,166.2813 17.2344,166.25 17.0625,166.1406 C16.8438,165.9688 16.7031,165.7188 16.7031,165.4375 C16.7031,165.1563 16.8594,164.875 17.1094,164.7031 C17.2656,164.6094 17.3906,164.5938 17.8438,164.5938 L21.5156,164.5938 L24.9063,172.7969 C25.375,172.7969 25.5313,172.8281 25.7031,172.9688 C25.9219,173.125 26.0625,173.375 26.0625,173.6563 C26.0625,173.9375 25.9063,174.2344 25.6563,174.375 C25.5156,174.4688 25.2969,174.5 24.9375,174.5 L22.5781,174.5 C22.1563,174.5 21.9531,174.4531 21.8125,174.3281 C21.5938,174.1719 21.4531,173.9219 21.4531,173.6563 C21.4531,173.3594 21.6094,173.0781 21.8594,172.9219 C22.0156,172.8125 22.125,172.7969 22.5781,172.7969 L22.9688,172.7969 Z M21.875,170.1094 L20.5469,166.8438 L19.2031,170.1094 Z "/><text fill="#000000" font-family="sans-serif" font-size="12" font-style="italic" lengthAdjust="spacingAndGlyphs" textLength="113" x="35" y="174.1543">AbstractCollection</text><line style="stroke: #A80036; stroke-width: 1.5;" x1="7" x2="150" y1="186" y2="186"/><line style="stroke: #A80036; stroke-width: 1.5;" x1="7" x2="150" y1="194" y2="194"/><rect fill="#FEFECE" filter="url(#f1)" height="48" style="stroke: #A80036; stroke-width: 1.5;" width="53" x="212" y="27"/><ellipse cx="227" cy="43" fill="#B4A7E5" rx="11" ry="11" style="stroke: #A80036; stroke-width: 1.0;"/><path d="M227.9531,39.7813 L227.9531,46.2969 L229.6719,46.2969 C230.125,46.2969 230.2656,46.3281 230.4375,46.4531 C230.6719,46.625 230.7813,46.875 230.7813,47.1563 C230.7813,47.7188 230.4219,48 229.6719,48 L224.5313,48 C224.125,48 223.9219,47.9531 223.7656,47.8281 C223.5469,47.6719 223.4063,47.4063 223.4063,47.1563 C223.4063,46.8594 223.5625,46.5781 223.8125,46.4219 C223.9688,46.3125 224.0938,46.2969 224.5313,46.2969 L226.25,46.2969 L226.25,39.7813 L224.5313,39.7813 C224.1094,39.7813 223.9219,39.75 223.7656,39.6406 C223.5469,39.4688 223.4063,39.2188 223.4063,38.9375 C223.4063,38.6563 223.5625,38.3594 223.8125,38.2031 C223.9688,38.1094 224.0938,38.0938 224.5313,38.0938 L229.6719,38.0938 C230.125,38.0938 230.2656,38.125 230.4375,38.2344 C230.6719,38.4063 230.7813,38.6719 230.7813,38.9375 C230.7813,39.2344 230.6406,39.5156 230.375,39.6719 C230.25,39.75 230.0625,39.7813 229.6719,39.7813 Z "/><text fill="#000000" font-family="sans-serif" font-size="12" font-style="italic" lengthAdjust="spacingAndGlyphs" textLength="21" x="241" y="47.1543">List</text><line style="stroke: #A80036; stroke-width: 1.5;" x1="213" x2="264" y1="59" y2="59"/><line style="stroke: #A80036; stroke-width: 1.5;" x1="213" x2="264" y1="67" y2="67"/><rect fill="#FEFECE" filter="url(#f1)" height="48" style="stroke: #A80036; stroke-width: 1.5;" width="93" x="32" y="27"/><ellipse cx="47" cy="43" fill="#B4A7E5" rx="11" ry="11" style="stroke: #A80036; stroke-width: 1.0;"/><path d="M47.9531,39.7813 L47.9531,46.2969 L49.6719,46.2969 C50.125,46.2969 50.2656,46.3281 50.4375,46.4531 C50.6719,46.625 50.7813,46.875 50.7813,47.1563 C50.7813,47.7188 50.4219,48 49.6719,48 L44.5313,48 C44.125,48 43.9219,47.9531 43.7656,47.8281 C43.5469,47.6719 43.4063,47.4063 43.4063,47.1563 C43.4063,46.8594 43.5625,46.5781 43.8125,46.4219 C43.9688,46.3125 44.0938,46.2969 44.5313,46.2969 L46.25,46.2969 L46.25,39.7813 L44.5313,39.7813 C44.1094,39.7813 43.9219,39.75 43.7656,39.6406 C43.5469,39.4688 43.4063,39.2188 43.4063,38.9375 C43.4063,38.6563 43.5625,38.3594 43.8125,38.2031 C43.9688,38.1094 44.0938,38.0938 44.5313,38.0938 L49.6719,38.0938 C50.125,38.0938 50.2656,38.125 50.4375,38.2344 C50.6719,38.4063 50.7813,38.6719 50.7813,38.9375 C50.7813,39.2344 50.6406,39.5156 50.375,39.6719 C50.25,39.75 50.0625,39.7813 49.6719,39.7813 Z "/><text fill="#000000" font-family="sans-serif" font-size="12" font-style="italic" lengthAdjust="spacingAndGlyphs" textLength="61" x="61" y="47.1543">Collection</text><line style="stroke: #A80036; stroke-width: 1.5;" x1="33" x2="124" y1="59" y2="59"/><line style="stroke: #A80036; stroke-width: 1.5;" x1="33" x2="124" y1="67" y2="67"/><rect fill="#FEFECE" filter="url(#f1)" height="60.8047" style="stroke: #A80036; stroke-width: 1.5;" width="166" x="155.25" y="262.5"/><ellipse cx="207.5" cy="278.5" fill="#ADD1B2" rx="11" ry="11" style="stroke: #A80036; stroke-width: 1.0;"/><path d="M209.8438,274.1719 L210.0156,274.25 C210.2344,273.9375 210.4375,273.8438 210.7344,273.8438 C211.0313,273.8438 211.3125,273.9844 211.4688,274.25 C211.5625,274.4063 211.5781,274.5313 211.5781,274.9688 L211.5781,276.3906 C211.5781,276.8125 211.5469,277 211.4375,277.1563 C211.2656,277.375 211,277.5156 210.7344,277.5156 C210.5156,277.5156 210.2813,277.4063 210.1406,277.2656 C210,277.1406 209.9688,277.0156 209.9063,276.6094 C209.8125,276.2031 209.6406,275.9844 209.1563,275.7031 C208.6875,275.4531 208.0781,275.2969 207.5,275.2969 C205.7656,275.2969 204.5156,276.6094 204.5156,278.3906 L204.5156,279.4844 C204.5156,281.1875 205.8125,282.2813 207.8594,282.2813 C208.625,282.2813 209.3125,282.1563 209.7344,281.8906 C209.9219,281.7969 209.9219,281.7969 210.375,281.3125 C210.5625,281.125 210.7656,281.0469 210.9844,281.0469 C211.4531,281.0469 211.8438,281.4375 211.8438,281.8906 C211.8438,282.2813 211.5156,282.7344 210.9375,283.1406 C210.1875,283.6875 209.0313,283.9844 207.8125,283.9844 C204.9219,283.9844 202.8125,282.0938 202.8125,279.5156 L202.8125,278.3906 C202.8125,275.6719 204.8125,273.5938 207.4375,273.5938 C208.3125,273.5938 208.9063,273.7344 209.8438,274.1719 Z "/><text fill="#000000" font-family="sans-serif" font-size="12" lengthAdjust="spacingAndGlyphs" textLength="53" x="228" y="282.6543">ArrayList</text><line style="stroke: #A80036; stroke-width: 1.5;" x1="156.25" x2="320.25" y1="294.5" y2="294.5"/><line style="stroke: #A80036; stroke-width: 1.5;" x1="156.25" x2="320.25" y1="302.5" y2="302.5"/><text fill="#000000" font-family="sans-serif" font-size="11" lengthAdjust="spacingAndGlyphs" textLength="154" x="161.25" y="316.7104">Object[] elementData size()</text><rect fill="#FEFECE" filter="url(#f1)" height="86.4141" style="stroke: #A80036; stroke-width: 1.5;" width="86" x="300.25" y="8"/><ellipse cx="315.25" cy="24" fill="#EB937F" rx="11" ry="11" style="stroke: #A80036; stroke-width: 1.0;"/><path d="M313.5469,24.875 L313.5469,27.2969 L317.9063,27.2969 L317.9063,26.4219 C317.9063,25.9375 317.9375,25.7969 318.0469,25.6406 C318.2188,25.3906 318.4844,25.2813 318.75,25.2813 C319.0313,25.2813 319.3125,25.4375 319.4844,25.6875 C319.5625,25.8438 319.5938,25.9844 319.5938,26.4219 L319.5938,29 L311.5938,29 C311.2031,29 310.9688,28.9531 310.8281,28.8281 C310.6094,28.6719 310.4688,28.4219 310.4688,28.1563 C310.4688,27.8594 310.625,27.5938 310.875,27.4219 C311.0313,27.3125 311.1875,27.2969 311.5938,27.2969 L311.8438,27.2969 L311.8438,20.7813 L311.5938,20.7813 C311.1719,20.7813 310.9844,20.75 310.8281,20.6406 C310.6094,20.4688 310.4688,20.2188 310.4688,19.9375 C310.4688,19.6563 310.625,19.3594 310.875,19.2031 C311.0313,19.1094 311.1563,19.0938 311.5938,19.0938 L319.2188,19.0938 L319.2188,21.6406 C319.2188,22.1094 319.1875,22.25 319.0781,22.4219 C318.9063,22.6406 318.6406,22.7813 318.375,22.7813 C318.0938,22.7813 317.8125,22.625 317.6406,22.375 C317.5625,22.2188 317.5313,22.0469 317.5313,21.6406 L317.5313,20.7813 L313.5469,20.7813 L313.5469,23.1875 L315,23.1875 L315,23.0625 C315,22.6094 315.0313,22.4531 315.1406,22.2813 C315.3125,22.0625 315.5781,21.9219 315.8281,21.9219 C316.2813,21.9219 316.5938,22.2344 316.6563,22.7031 C316.6719,22.8594 316.6719,22.9063 316.6719,23.0625 L316.6719,24.9844 C316.6719,25.4375 316.6406,25.5938 316.5156,25.75 C316.3594,25.9688 316.0938,26.1094 315.8438,26.1094 C315.5469,26.1094 315.2656,25.9531 315.1094,25.7031 C315.0313,25.5469 315,25.3906 315,24.9844 L315,24.875 Z "/><text fill="#000000" font-family="sans-serif" font-size="12" lengthAdjust="spacingAndGlyphs" textLength="54" x="329.25" y="28.1543">TimeUnit</text><line style="stroke: #A80036; stroke-width: 1.5;" x1="301.25" x2="385.25" y1="40" y2="40"/><text fill="#000000" font-family="sans-serif" font-size="11" lengthAdjust="spacingAndGlyphs" textLength="30" x="306.25" y="54.2104">DAYS</text><text fill="#000000" font-family="sans-serif" font-size="11" lengthAdjust="spacingAndGlyphs" textLength="40" x="306.25" y="67.0151">HOURS</text><text fill="#000000" font-family="sans-serif" font-size="11" lengthAdjust="spacingAndGlyphs" textLength="50" x="306.25" y="79.8198">MINUTES</text><line style="stroke: #A80036; stroke-width: 1.5;" x1="301.25" x2="385.25" y1="86.4141" y2="86.4141"/><rect fill="#FEFECE" filter="url(#f1)" height="48" style="stroke: #A80036; stroke-width: 1.5;" width="149" x="422" y="27"/><ellipse cx="437" cy="43" fill="#A9DCDF" rx="11" ry="11" style="stroke: #A80036; stroke-width: 1.0;"/><path d="M438.9219,40.25 L438.9219,39.7031 C438.9219,38.5781 438.1875,37.7969 437.1406,37.7969 C435.7031,37.7969 434.6406,39.4375 434.6406,41.6094 L434.6406,44.2656 C434.6406,45.5625 434.9219,46.6094 435.5,47.4063 C435.9063,48 436.4375,48.2656 437.1875,48.2656 C437.9375,48.2656 438.6094,48.0469 438.9375,47.7188 C439.1719,47.4688 439.2656,47.4219 439.4688,47.4219 C439.8438,47.4219 440.1406,47.7344 440.1406,48.125 C440.1406,48.9219 438.75,49.5781 437.1406,49.5781 C435.7344,49.5781 434.8125,49.0156 434.0938,47.7656 C433.5781,46.8438 433.2969,45.625 433.2969,44.375 L433.2969,41.5156 C433.2969,38.5781 434.9063,36.4531 437.1094,36.4531 C438.9531,36.4531 440.2656,37.8125 440.2656,39.7031 L440.2656,44.4844 C440.5313,44.6094 440.6563,44.7969 440.6563,45.0781 C440.6563,45.5625 440.3438,45.7813 439.7188,45.7813 L438.9219,45.7813 L438.9219,45.7188 C438.6563,45.7656 438.5156,45.7813 438.3594,45.7813 C436.9063,45.7813 435.7031,44.5625 435.7031,43.1563 C435.7031,41.5781 437.0156,40.3906 438.9219,40.25 Z M438.9219,44.3594 L438.9219,41.625 C437.7969,41.7344 437.0469,42.3438 437.0469,43.1719 C437.0469,43.875 437.6563,44.4063 438.4844,44.4063 C438.5938,44.4063 438.6875,44.4063 438.9219,44.3594 Z "/><text fill="#000000" font-family="sans-serif" font-size="12" lengthAdjust="spacingAndGlyphs" textLength="117" x="451" y="47.1543">SuppressWarnings</text><line style="stroke: #A80036; stroke-width: 1.5;" x1="423" x2="570" y1="59" y2="59"/><line style="stroke: #A80036; stroke-width: 1.5;" x1="423" x2="570" y1="67" y2="67"/><path d="M238.25,95.406 C238.25,115.075 238.25,137.536 238.25,153.906 " fill="none" style="stroke: #A80036; stroke-width: 1.0;"/><polygon fill="none" points="231.25,95.219,238.25,75.219,245.25,95.219,231.25,95.219" style="stroke: #A80036; stroke-width: 1.0;"/><path d="M78.25,95.406 C78.25,115.075 78.25,137.536 78.25,153.906 " fill="none" style="stroke: #A80036; stroke-width: 1.0;"/><polygon fill="none" points="71.2501,95.219,78.25,75.219,85.2501,95.219,71.2501,95.219" style="stroke: #A80036; stroke-width: 1.0;"/><path d="M144.829,51 C167.107,51 189.385,51 211.663,51 " fill="none" style="stroke: #A80036; stroke-width: 1.0;"/><polygon fill="none" points="144.813,58,124.812,51,144.812,44,144.813,58" style="stroke: #A80036; stroke-width: 1.0;"/><path d="M170.828,178 C175.87,178 180.913,178 185.955,178 " fill="none" style="stroke: #A80036; stroke-width: 1.0;"/><polygon fill="none" points="170.75,185,150.75,178,170.75,171,170.75,185" style="stroke: #A80036; stroke-width: 1.0;"/><path d="M238.25,222.462 C238.25,235.8301 238.25,250.2284 238.25,262.4363 " fill="none" style="stroke: #A80036; stroke-width: 1.0;"/><polygon fill="none" points="231.25,222.14,238.25,202.14,245.25,222.14,231.25,222.14" style="stroke: #A80036; stroke-width: 1.0;"/></g></svg>