<?xml version="1.0" encoding="UTF-8" standalone="yes"?><svg xmlns="http://www.w3.org/2000/svg" xmlns:xlink="http://www.w3.org/1999/xlink" height="142pt" style="width:99px;height:142px;" version="1.1" viewBox="0 0 99 142" width="99pt"><defs><filter height="300%" id="f1" width="300%" x="-1" y="-1"><feGaussianBlur result="blurOut" stdDeviation="2.0"/><feColorMatrix in="blurOut" result="blurOut2" type="matrix" values="0 0 0 0 0 0 0 0 0 0 0 0 0 0 0 0 0 0 .4 0"/><feOffset dx="4.0" dy="4.0" in="blurOut2" result="blurOut3"/><feBlend in="SourceGraphic" in2="blurOut3" mode="normal"/></filter></defs><g><rect fill="#FEFECE" filter="url(#f1)" height="124.8281" style="stroke: #A80036; stroke-width: 1.5;" width="84" x="6" y="8.5"/><ellipse cx="24.15" cy="24.5" fill="#ADD1B2" rx="11" ry="11" style="stroke: #A80036; stroke-width: 1.0;"/><path d="M26.4938,20.1719 L26.6656,20.25 C26.8844,19.9375 27.0875,19.8438 27.3844,19.8438 C27.6813,19.8438 27.9625,19.9844 28.1188,20.25 C28.2125,20.4063 28.2281,20.5313 28.2281,20.9688 L28.2281,22.3906 C28.2281,22.8125 28.1969,23 28.0875,23.1563 C27.9156,23.375 27.65,23.5156 27.3844,23.5156 C27.1656,23.5156 26.9313,23.4063 26.7906,23.2656 C26.65,23.1406 26.6188,23.0156 26.5563,22.6094 C26.4625,22.2031 26.2906,21.9844 25.8063,21.7031 C25.3375,21.4531 24.7281,21.2969 24.15,21.2969 C22.4156,21.2969 21.1656,22.6094 21.1656,24.3906 L21.1656,25.4844 C21.1656,27.1875 22.4625,28.2813 24.5094,28.2813 C25.275,28.2813 25.9625,28.1563 26.3844,27.8906 C26.5719,27.7969 26.5719,27.7969 27.025,27.3125 C27.2125,27.125 27.4156,27.0469 27.6344,27.0469 C28.1031,27.0469 28.4938,27.4375 28.4938,27.8906 C28.4938,28.2813 28.1656,28.7344 27.5875,29.1406 C26.8375,29.6875 25.6813,29.9844 24.4625,29.9844 C21.5719,29.9844 19.4625,28.0938 19.4625,25.5156 L19.4625,24.3906 C19.4625,21.6719 21.4625,19.5938 24.0875,19.5938 C24.9625,19.5938 25.5563,19.7344 26.4938,20.1719 Z "/><text fill="#000000" font-family="sans-serif" font-size="12" lengthAdjust="spacingAndGlyphs" textLength="45" x="38.85" y="28.6543">Dummy</text><line style="stroke: #A80036; stroke-width: 1.5;" x1="7" x2="89" y1="40.5" y2="40.5"/><rect fill="none" height="6" style="stroke: #C82930; stroke-width: 1.0;" width="6" x="14" y="49.4023"/><text fill="#000000" font-family="sans-serif" font-size="11" lengthAdjust="spacingAndGlyphs" textLength="31" x="26" y="54.7104">field1</text><polygon fill="none" points="17,60.207,21,64.207,17,68.207,13,64.207" style="stroke: #B38D22; stroke-width: 1.0;"/><text fill="#000000" font-family="sans-serif" font-size="11" lengthAdjust="spacingAndGlyphs" textLength="31" x="26" y="67.5151">field2</text><ellipse cx="17" cy="78.0117" fill="none" rx="3" ry="3" style="stroke: #038048; stroke-width: 1.0;"/><text fill="#000000" font-family="sans-serif" font-size="11" lengthAdjust="spacingAndGlyphs" text-decoration="underline" textLength="31" x="26" y="80.3198">field3</text><line style="stroke: #000000; stroke-width: 1.0;" x1="26" x2="57" y1="82.3198" y2="82.3198"/><line style="stroke: #A80036; stroke-width: 1.5;" x1="7" x2="89" y1="86.9141" y2="86.9141"/><polygon fill="#4177AF" points="17,94.8164,13,100.8164,21,100.8164" style="stroke: #1963A0; stroke-width: 1.0;"/><text fill="#000000" font-family="sans-serif" font-size="11" lengthAdjust="spacingAndGlyphs" textLength="58" x="26" y="101.1245">method1()</text><ellipse cx="17" cy="111.6211" fill="#84BE84" rx="3" ry="3" style="stroke: #038048; stroke-width: 1.0;"/><text fill="#000000" font-family="sans-serif" font-size="11" lengthAdjust="spacingAndGlyphs" textLength="58" x="26" y="113.9292">method2()</text><polygon fill="#FFFF44" points="17,119.4258,21,123.4258,17,127.4258,13,123.4258" style="stroke: #B38D22; stroke-width: 1.0;"/><text fill="#000000" font-family="sans-serif" font-size="11" font-style="italic" lengthAdjust="spacingAndGlyphs" textLength="58" x="26" y="126.7339">method2()</text></g></svg>