<?xml version="1.0" encoding="UTF-8" standalone="yes"?><svg xmlns="http://www.w3.org/2000/svg" xmlns:xlink="http://www.w3.org/1999/xlink" height="239pt" style="width:436px;height:239px;" version="1.1" viewBox="0 0 436 239" width="436pt"><defs><filter height="300%" id="f1" width="300%" x="-1" y="-1"><feGaussianBlur result="blurOut" stdDeviation="2.0"/><feColorMatrix in="blurOut" result="blurOut2" type="matrix" values="0 0 0 0 0 0 0 0 0 0 0 0 0 0 0 0 0 0 .4 0"/><feOffset dx="4.0" dy="4.0" in="blurOut2" result="blurOut3"/><feBlend in="SourceGraphic" in2="blurOut3" mode="normal"/></filter></defs><g><polygon fill="#DDDDDD" filter="url(#f1)" points="22,24,175,24,182,46.2969,186,46.2969,186,232,22,232,22,24" style="stroke: #000000; stroke-width: 2.0;"/><line style="stroke: #000000; stroke-width: 2.0;" x1="22" x2="182" y1="46.2969" y2="46.2969"/><text fill="#000000" font-family="sans-serif" font-size="14" font-weight="bold" lengthAdjust="spacingAndGlyphs" textLength="147" x="25" y="39.9951">Classic Collections</text><polygon fill="#FFFFFF" filter="url(#f1)" points="210,132,417,132,424,154.2969,429,154.2969,429,232,210,232,210,132" style="stroke: #000000; stroke-width: 2.0;"/><line style="stroke: #000000; stroke-width: 2.0;" x1="210" x2="424" y1="154.2969" y2="154.2969"/><text fill="#000000" font-family="sans-serif" font-size="14" font-weight="bold" lengthAdjust="spacingAndGlyphs" textLength="201" x="213" y="147.9951">net.sourceforge.plantuml</text><rect fill="#FEFECE" filter="url(#f1)" height="48" style="stroke: #A80036; stroke-width: 1.5;" width="72" x="94" y="60"/><ellipse cx="109" cy="76" fill="#ADD1B2" rx="11" ry="11" style="stroke: #A80036; stroke-width: 1.0;"/><path d="M111.3438,71.6719 L111.5156,71.75 C111.7344,71.4375 111.9375,71.3438 112.2344,71.3438 C112.5313,71.3438 112.8125,71.4844 112.9688,71.75 C113.0625,71.9063 113.0781,72.0313 113.0781,72.4688 L113.0781,73.8906 C113.0781,74.3125 113.0469,74.5 112.9375,74.6563 C112.7656,74.875 112.5,75.0156 112.2344,75.0156 C112.0156,75.0156 111.7813,74.9063 111.6406,74.7656 C111.5,74.6406 111.4688,74.5156 111.4063,74.1094 C111.3125,73.7031 111.1406,73.4844 110.6563,73.2031 C110.1875,72.9531 109.5781,72.7969 109,72.7969 C107.2656,72.7969 106.0156,74.1094 106.0156,75.8906 L106.0156,76.9844 C106.0156,78.6875 107.3125,79.7813 109.3594,79.7813 C110.125,79.7813 110.8125,79.6563 111.2344,79.3906 C111.4219,79.2969 111.4219,79.2969 111.875,78.8125 C112.0625,78.625 112.2656,78.5469 112.4844,78.5469 C112.9531,78.5469 113.3438,78.9375 113.3438,79.3906 C113.3438,79.7813 113.0156,80.2344 112.4375,80.6406 C111.6875,81.1875 110.5313,81.4844 109.3125,81.4844 C106.4219,81.4844 104.3125,79.5938 104.3125,77.0156 L104.3125,75.8906 C104.3125,73.1719 106.3125,71.0938 108.9375,71.0938 C109.8125,71.0938 110.4063,71.2344 111.3438,71.6719 Z "/><text fill="#000000" font-family="sans-serif" font-size="12" lengthAdjust="spacingAndGlyphs" textLength="40" x="123" y="80.1543">Object</text><line style="stroke: #A80036; stroke-width: 1.5;" x1="95" x2="165" y1="92" y2="92"/><line style="stroke: #A80036; stroke-width: 1.5;" x1="95" x2="165" y1="100" y2="100"/><rect fill="#FEFECE" filter="url(#f1)" height="48" style="stroke: #A80036; stroke-width: 1.5;" width="85" x="84.75" y="168"/><ellipse cx="99.75" cy="184" fill="#ADD1B2" rx="11" ry="11" style="stroke: #A80036; stroke-width: 1.0;"/><path d="M102.0938,179.6719 L102.2656,179.75 C102.4844,179.4375 102.6875,179.3438 102.9844,179.3438 C103.2813,179.3438 103.5625,179.4844 103.7188,179.75 C103.8125,179.9063 103.8281,180.0313 103.8281,180.4688 L103.8281,181.8906 C103.8281,182.3125 103.7969,182.5 103.6875,182.6563 C103.5156,182.875 103.25,183.0156 102.9844,183.0156 C102.7656,183.0156 102.5313,182.9063 102.3906,182.7656 C102.25,182.6406 102.2188,182.5156 102.1563,182.1094 C102.0625,181.7031 101.8906,181.4844 101.4063,181.2031 C100.9375,180.9531 100.3281,180.7969 99.75,180.7969 C98.0156,180.7969 96.7656,182.1094 96.7656,183.8906 L96.7656,184.9844 C96.7656,186.6875 98.0625,187.7813 100.1094,187.7813 C100.875,187.7813 101.5625,187.6563 101.9844,187.3906 C102.1719,187.2969 102.1719,187.2969 102.625,186.8125 C102.8125,186.625 103.0156,186.5469 103.2344,186.5469 C103.7031,186.5469 104.0938,186.9375 104.0938,187.3906 C104.0938,187.7813 103.7656,188.2344 103.1875,188.6406 C102.4375,189.1875 101.2813,189.4844 100.0625,189.4844 C97.1719,189.4844 95.0625,187.5938 95.0625,185.0156 L95.0625,183.8906 C95.0625,181.1719 97.0625,179.0938 99.6875,179.0938 C100.5625,179.0938 101.1563,179.2344 102.0938,179.6719 Z "/><text fill="#000000" font-family="sans-serif" font-size="12" lengthAdjust="spacingAndGlyphs" textLength="53" x="113.75" y="188.1543">ArrayList</text><line style="stroke: #A80036; stroke-width: 1.5;" x1="85.75" x2="168.75" y1="200" y2="200"/><line style="stroke: #A80036; stroke-width: 1.5;" x1="85.75" x2="168.75" y1="208" y2="208"/><rect fill="#FEFECE" filter="url(#f1)" height="48" style="stroke: #A80036; stroke-width: 1.5;" width="76" x="226" y="168"/><ellipse cx="241" cy="184" fill="#ADD1B2" rx="11" ry="11" style="stroke: #A80036; stroke-width: 1.0;"/><path d="M243.3438,179.6719 L243.5156,179.75 C243.7344,179.4375 243.9375,179.3438 244.2344,179.3438 C244.5313,179.3438 244.8125,179.4844 244.9688,179.75 C245.0625,179.9063 245.0781,180.0313 245.0781,180.4688 L245.0781,181.8906 C245.0781,182.3125 245.0469,182.5 244.9375,182.6563 C244.7656,182.875 244.5,183.0156 244.2344,183.0156 C244.0156,183.0156 243.7813,182.9063 243.6406,182.7656 C243.5,182.6406 243.4688,182.5156 243.4063,182.1094 C243.3125,181.7031 243.1406,181.4844 242.6563,181.2031 C242.1875,180.9531 241.5781,180.7969 241,180.7969 C239.2656,180.7969 238.0156,182.1094 238.0156,183.8906 L238.0156,184.9844 C238.0156,186.6875 239.3125,187.7813 241.3594,187.7813 C242.125,187.7813 242.8125,187.6563 243.2344,187.3906 C243.4219,187.2969 243.4219,187.2969 243.875,186.8125 C244.0625,186.625 244.2656,186.5469 244.4844,186.5469 C244.9531,186.5469 245.3438,186.9375 245.3438,187.3906 C245.3438,187.7813 245.0156,188.2344 244.4375,188.6406 C243.6875,189.1875 242.5313,189.4844 241.3125,189.4844 C238.4219,189.4844 236.3125,187.5938 236.3125,185.0156 L236.3125,183.8906 C236.3125,181.1719 238.3125,179.0938 240.9375,179.0938 C241.8125,179.0938 242.4063,179.2344 243.3438,179.6719 Z "/><text fill="#000000" font-family="sans-serif" font-size="12" lengthAdjust="spacingAndGlyphs" textLength="44" x="255" y="188.1543">Demo1</text><line style="stroke: #A80036; stroke-width: 1.5;" x1="227" x2="301" y1="200" y2="200"/><line style="stroke: #A80036; stroke-width: 1.5;" x1="227" x2="301" y1="208" y2="208"/><rect fill="#FEFECE" filter="url(#f1)" height="48" style="stroke: #A80036; stroke-width: 1.5;" width="76" x="337" y="168"/><ellipse cx="352" cy="184" fill="#ADD1B2" rx="11" ry="11" style="stroke: #A80036; stroke-width: 1.0;"/><path d="M354.3438,179.6719 L354.5156,179.75 C354.7344,179.4375 354.9375,179.3438 355.2344,179.3438 C355.5313,179.3438 355.8125,179.4844 355.9688,179.75 C356.0625,179.9063 356.0781,180.0313 356.0781,180.4688 L356.0781,181.8906 C356.0781,182.3125 356.0469,182.5 355.9375,182.6563 C355.7656,182.875 355.5,183.0156 355.2344,183.0156 C355.0156,183.0156 354.7813,182.9063 354.6406,182.7656 C354.5,182.6406 354.4688,182.5156 354.4063,182.1094 C354.3125,181.7031 354.1406,181.4844 353.6563,181.2031 C353.1875,180.9531 352.5781,180.7969 352,180.7969 C350.2656,180.7969 349.0156,182.1094 349.0156,183.8906 L349.0156,184.9844 C349.0156,186.6875 350.3125,187.7813 352.3594,187.7813 C353.125,187.7813 353.8125,187.6563 354.2344,187.3906 C354.4219,187.2969 354.4219,187.2969 354.875,186.8125 C355.0625,186.625 355.2656,186.5469 355.4844,186.5469 C355.9531,186.5469 356.3438,186.9375 356.3438,187.3906 C356.3438,187.7813 356.0156,188.2344 355.4375,188.6406 C354.6875,189.1875 353.5313,189.4844 352.3125,189.4844 C349.4219,189.4844 347.3125,187.5938 347.3125,185.0156 L347.3125,183.8906 C347.3125,181.1719 349.3125,179.0938 351.9375,179.0938 C352.8125,179.0938 353.4063,179.2344 354.3438,179.6719 Z "/><text fill="#000000" font-family="sans-serif" font-size="12" lengthAdjust="spacingAndGlyphs" textLength="44" x="366" y="188.1543">Demo2</text><line style="stroke: #A80036; stroke-width: 1.5;" x1="338" x2="412" y1="200" y2="200"/><line style="stroke: #A80036; stroke-width: 1.5;" x1="338" x2="412" y1="208" y2="208"/><path d="M128.782,128.024 C128.399,141.579 127.989,156.0381 127.66,167.6784 " fill="none" style="stroke: #A80036; stroke-width: 1.0;"/><polygon fill="none" points="121.786,127.794,129.349,108,135.78,128.19,121.786,127.794" style="stroke: #A80036; stroke-width: 1.0;"/><path d="M180.764,120.008 C182.54,121.343 184.291,122.676 186,124 C204.065,137.992 223.565,154.7417 238.549,167.9938 " fill="none" style="stroke: #A80036; stroke-width: 1.0;"/><polygon fill="none" points="176.532,125.586,164.454,108.176,184.753,114.254,176.532,125.586" style="stroke: #A80036; stroke-width: 1.0;"/><path d="M315.174,192 C322.406,192 329.639,192 336.871,192 " fill="none" style="stroke: #A80036; stroke-width: 1.0;"/><polygon fill="#A80036" points="302.156,192,308.156,196,314.156,192,308.156,188,302.156,192" style="stroke: #A80036; stroke-width: 1.0;"/></g></svg>