<?xml version="1.0" encoding="UTF-8" standalone="yes"?><svg xmlns="http://www.w3.org/2000/svg" xmlns:xlink="http://www.w3.org/1999/xlink" height="191pt" style="width:951px;height:191px;" version="1.1" viewBox="0 0 951 191" width="951pt"><defs><filter height="300%" id="f1" width="300%" x="-1" y="-1"><feGaussianBlur result="blurOut" stdDeviation="2.0"/><feColorMatrix in="blurOut" result="blurOut2" type="matrix" values="0 0 0 0 0 0 0 0 0 0 0 0 0 0 0 0 0 0 .4 0"/><feOffset dx="4.0" dy="4.0" in="blurOut2" result="blurOut3"/><feBlend in="SourceGraphic" in2="blurOut3" mode="normal"/></filter></defs><g><rect fill="#FEFECE" filter="url(#f1)" height="48" style="stroke: #A80036; stroke-width: 1.5;" width="81" x="6" y="8"/><ellipse cx="21" cy="24" fill="#ADD1B2" rx="11" ry="11" style="stroke: #A80036; stroke-width: 1.0;"/><path d="M23.3438,19.6719 L23.5156,19.75 C23.7344,19.4375 23.9375,19.3438 24.2344,19.3438 C24.5313,19.3438 24.8125,19.4844 24.9688,19.75 C25.0625,19.9063 25.0781,20.0313 25.0781,20.4688 L25.0781,21.8906 C25.0781,22.3125 25.0469,22.5 24.9375,22.6563 C24.7656,22.875 24.5,23.0156 24.2344,23.0156 C24.0156,23.0156 23.7813,22.9063 23.6406,22.7656 C23.5,22.6406 23.4688,22.5156 23.4063,22.1094 C23.3125,21.7031 23.1406,21.4844 22.6563,21.2031 C22.1875,20.9531 21.5781,20.7969 21,20.7969 C19.2656,20.7969 18.0156,22.1094 18.0156,23.8906 L18.0156,24.9844 C18.0156,26.6875 19.3125,27.7813 21.3594,27.7813 C22.125,27.7813 22.8125,27.6563 23.2344,27.3906 C23.4219,27.2969 23.4219,27.2969 23.875,26.8125 C24.0625,26.625 24.2656,26.5469 24.4844,26.5469 C24.9531,26.5469 25.3438,26.9375 25.3438,27.3906 C25.3438,27.7813 25.0156,28.2344 24.4375,28.6406 C23.6875,29.1875 22.5313,29.4844 21.3125,29.4844 C18.4219,29.4844 16.3125,27.5938 16.3125,25.0156 L16.3125,23.8906 C16.3125,21.1719 18.3125,19.0938 20.9375,19.0938 C21.8125,19.0938 22.4063,19.2344 23.3438,19.6719 Z "/><text fill="#000000" font-family="sans-serif" font-size="12" lengthAdjust="spacingAndGlyphs" textLength="49" x="35" y="28.1543">Class01</text><line style="stroke: #A80036; stroke-width: 1.5;" x1="7" x2="86" y1="40" y2="40"/><line style="stroke: #A80036; stroke-width: 1.5;" x1="7" x2="86" y1="48" y2="48"/><rect fill="#FEFECE" filter="url(#f1)" height="48" style="stroke: #A80036; stroke-width: 1.5;" width="81" x="6" y="134"/><ellipse cx="21" cy="150" fill="#ADD1B2" rx="11" ry="11" style="stroke: #A80036; stroke-width: 1.0;"/><path d="M23.3438,145.6719 L23.5156,145.75 C23.7344,145.4375 23.9375,145.3438 24.2344,145.3438 C24.5313,145.3438 24.8125,145.4844 24.9688,145.75 C25.0625,145.9063 25.0781,146.0313 25.0781,146.4688 L25.0781,147.8906 C25.0781,148.3125 25.0469,148.5 24.9375,148.6563 C24.7656,148.875 24.5,149.0156 24.2344,149.0156 C24.0156,149.0156 23.7813,148.9063 23.6406,148.7656 C23.5,148.6406 23.4688,148.5156 23.4063,148.1094 C23.3125,147.7031 23.1406,147.4844 22.6563,147.2031 C22.1875,146.9531 21.5781,146.7969 21,146.7969 C19.2656,146.7969 18.0156,148.1094 18.0156,149.8906 L18.0156,150.9844 C18.0156,152.6875 19.3125,153.7813 21.3594,153.7813 C22.125,153.7813 22.8125,153.6563 23.2344,153.3906 C23.4219,153.2969 23.4219,153.2969 23.875,152.8125 C24.0625,152.625 24.2656,152.5469 24.4844,152.5469 C24.9531,152.5469 25.3438,152.9375 25.3438,153.3906 C25.3438,153.7813 25.0156,154.2344 24.4375,154.6406 C23.6875,155.1875 22.5313,155.4844 21.3125,155.4844 C18.4219,155.4844 16.3125,153.5938 16.3125,151.0156 L16.3125,149.8906 C16.3125,147.1719 18.3125,145.0938 20.9375,145.0938 C21.8125,145.0938 22.4063,145.2344 23.3438,145.6719 Z "/><text fill="#000000" font-family="sans-serif" font-size="12" lengthAdjust="spacingAndGlyphs" textLength="49" x="35" y="154.1543">Class02</text><line style="stroke: #A80036; stroke-width: 1.5;" x1="7" x2="86" y1="166" y2="166"/><line style="stroke: #A80036; stroke-width: 1.5;" x1="7" x2="86" y1="174" y2="174"/><rect fill="#FEFECE" filter="url(#f1)" height="48" style="stroke: #A80036; stroke-width: 1.5;" width="81" x="154" y="8"/><ellipse cx="169" cy="24" fill="#ADD1B2" rx="11" ry="11" style="stroke: #A80036; stroke-width: 1.0;"/><path d="M171.3438,19.6719 L171.5156,19.75 C171.7344,19.4375 171.9375,19.3438 172.2344,19.3438 C172.5313,19.3438 172.8125,19.4844 172.9688,19.75 C173.0625,19.9063 173.0781,20.0313 173.0781,20.4688 L173.0781,21.8906 C173.0781,22.3125 173.0469,22.5 172.9375,22.6563 C172.7656,22.875 172.5,23.0156 172.2344,23.0156 C172.0156,23.0156 171.7813,22.9063 171.6406,22.7656 C171.5,22.6406 171.4688,22.5156 171.4063,22.1094 C171.3125,21.7031 171.1406,21.4844 170.6563,21.2031 C170.1875,20.9531 169.5781,20.7969 169,20.7969 C167.2656,20.7969 166.0156,22.1094 166.0156,23.8906 L166.0156,24.9844 C166.0156,26.6875 167.3125,27.7813 169.3594,27.7813 C170.125,27.7813 170.8125,27.6563 171.2344,27.3906 C171.4219,27.2969 171.4219,27.2969 171.875,26.8125 C172.0625,26.625 172.2656,26.5469 172.4844,26.5469 C172.9531,26.5469 173.3438,26.9375 173.3438,27.3906 C173.3438,27.7813 173.0156,28.2344 172.4375,28.6406 C171.6875,29.1875 170.5313,29.4844 169.3125,29.4844 C166.4219,29.4844 164.3125,27.5938 164.3125,25.0156 L164.3125,23.8906 C164.3125,21.1719 166.3125,19.0938 168.9375,19.0938 C169.8125,19.0938 170.4063,19.2344 171.3438,19.6719 Z "/><text fill="#000000" font-family="sans-serif" font-size="12" lengthAdjust="spacingAndGlyphs" textLength="49" x="183" y="28.1543">Class03</text><line style="stroke: #A80036; stroke-width: 1.5;" x1="155" x2="234" y1="40" y2="40"/><line style="stroke: #A80036; stroke-width: 1.5;" x1="155" x2="234" y1="48" y2="48"/><rect fill="#FEFECE" filter="url(#f1)" height="48" style="stroke: #A80036; stroke-width: 1.5;" width="81" x="154" y="134"/><ellipse cx="169" cy="150" fill="#ADD1B2" rx="11" ry="11" style="stroke: #A80036; stroke-width: 1.0;"/><path d="M171.3438,145.6719 L171.5156,145.75 C171.7344,145.4375 171.9375,145.3438 172.2344,145.3438 C172.5313,145.3438 172.8125,145.4844 172.9688,145.75 C173.0625,145.9063 173.0781,146.0313 173.0781,146.4688 L173.0781,147.8906 C173.0781,148.3125 173.0469,148.5 172.9375,148.6563 C172.7656,148.875 172.5,149.0156 172.2344,149.0156 C172.0156,149.0156 171.7813,148.9063 171.6406,148.7656 C171.5,148.6406 171.4688,148.5156 171.4063,148.1094 C171.3125,147.7031 171.1406,147.4844 170.6563,147.2031 C170.1875,146.9531 169.5781,146.7969 169,146.7969 C167.2656,146.7969 166.0156,148.1094 166.0156,149.8906 L166.0156,150.9844 C166.0156,152.6875 167.3125,153.7813 169.3594,153.7813 C170.125,153.7813 170.8125,153.6563 171.2344,153.3906 C171.4219,153.2969 171.4219,153.2969 171.875,152.8125 C172.0625,152.625 172.2656,152.5469 172.4844,152.5469 C172.9531,152.5469 173.3438,152.9375 173.3438,153.3906 C173.3438,153.7813 173.0156,154.2344 172.4375,154.6406 C171.6875,155.1875 170.5313,155.4844 169.3125,155.4844 C166.4219,155.4844 164.3125,153.5938 164.3125,151.0156 L164.3125,149.8906 C164.3125,147.1719 166.3125,145.0938 168.9375,145.0938 C169.8125,145.0938 170.4063,145.2344 171.3438,145.6719 Z "/><text fill="#000000" font-family="sans-serif" font-size="12" lengthAdjust="spacingAndGlyphs" textLength="49" x="183" y="154.1543">Class04</text><line style="stroke: #A80036; stroke-width: 1.5;" x1="155" x2="234" y1="166" y2="166"/><line style="stroke: #A80036; stroke-width: 1.5;" x1="155" x2="234" y1="174" y2="174"/><rect fill="#FEFECE" filter="url(#f1)" height="48" style="stroke: #A80036; stroke-width: 1.5;" width="81" x="325" y="8"/><ellipse cx="340" cy="24" fill="#ADD1B2" rx="11" ry="11" style="stroke: #A80036; stroke-width: 1.0;"/><path d="M342.3438,19.6719 L342.5156,19.75 C342.7344,19.4375 342.9375,19.3438 343.2344,19.3438 C343.5313,19.3438 343.8125,19.4844 343.9688,19.75 C344.0625,19.9063 344.0781,20.0313 344.0781,20.4688 L344.0781,21.8906 C344.0781,22.3125 344.0469,22.5 343.9375,22.6563 C343.7656,22.875 343.5,23.0156 343.2344,23.0156 C343.0156,23.0156 342.7813,22.9063 342.6406,22.7656 C342.5,22.6406 342.4688,22.5156 342.4063,22.1094 C342.3125,21.7031 342.1406,21.4844 341.6563,21.2031 C341.1875,20.9531 340.5781,20.7969 340,20.7969 C338.2656,20.7969 337.0156,22.1094 337.0156,23.8906 L337.0156,24.9844 C337.0156,26.6875 338.3125,27.7813 340.3594,27.7813 C341.125,27.7813 341.8125,27.6563 342.2344,27.3906 C342.4219,27.2969 342.4219,27.2969 342.875,26.8125 C343.0625,26.625 343.2656,26.5469 343.4844,26.5469 C343.9531,26.5469 344.3438,26.9375 344.3438,27.3906 C344.3438,27.7813 344.0156,28.2344 343.4375,28.6406 C342.6875,29.1875 341.5313,29.4844 340.3125,29.4844 C337.4219,29.4844 335.3125,27.5938 335.3125,25.0156 L335.3125,23.8906 C335.3125,21.1719 337.3125,19.0938 339.9375,19.0938 C340.8125,19.0938 341.4063,19.2344 342.3438,19.6719 Z "/><text fill="#000000" font-family="sans-serif" font-size="12" lengthAdjust="spacingAndGlyphs" textLength="49" x="354" y="28.1543">Class05</text><line style="stroke: #A80036; stroke-width: 1.5;" x1="326" x2="405" y1="40" y2="40"/><line style="stroke: #A80036; stroke-width: 1.5;" x1="326" x2="405" y1="48" y2="48"/><rect fill="#FEFECE" filter="url(#f1)" height="48" style="stroke: #A80036; stroke-width: 1.5;" width="81" x="325" y="134"/><ellipse cx="340" cy="150" fill="#ADD1B2" rx="11" ry="11" style="stroke: #A80036; stroke-width: 1.0;"/><path d="M342.3438,145.6719 L342.5156,145.75 C342.7344,145.4375 342.9375,145.3438 343.2344,145.3438 C343.5313,145.3438 343.8125,145.4844 343.9688,145.75 C344.0625,145.9063 344.0781,146.0313 344.0781,146.4688 L344.0781,147.8906 C344.0781,148.3125 344.0469,148.5 343.9375,148.6563 C343.7656,148.875 343.5,149.0156 343.2344,149.0156 C343.0156,149.0156 342.7813,148.9063 342.6406,148.7656 C342.5,148.6406 342.4688,148.5156 342.4063,148.1094 C342.3125,147.7031 342.1406,147.4844 341.6563,147.2031 C341.1875,146.9531 340.5781,146.7969 340,146.7969 C338.2656,146.7969 337.0156,148.1094 337.0156,149.8906 L337.0156,150.9844 C337.0156,152.6875 338.3125,153.7813 340.3594,153.7813 C341.125,153.7813 341.8125,153.6563 342.2344,153.3906 C342.4219,153.2969 342.4219,153.2969 342.875,152.8125 C343.0625,152.625 343.2656,152.5469 343.4844,152.5469 C343.9531,152.5469 344.3438,152.9375 344.3438,153.3906 C344.3438,153.7813 344.0156,154.2344 343.4375,154.6406 C342.6875,155.1875 341.5313,155.4844 340.3125,155.4844 C337.4219,155.4844 335.3125,153.5938 335.3125,151.0156 L335.3125,149.8906 C335.3125,147.1719 337.3125,145.0938 339.9375,145.0938 C340.8125,145.0938 341.4063,145.2344 342.3438,145.6719 Z "/><text fill="#000000" font-family="sans-serif" font-size="12" lengthAdjust="spacingAndGlyphs" textLength="49" x="354" y="154.1543">Class06</text><line style="stroke: #A80036; stroke-width: 1.5;" x1="326" x2="405" y1="166" y2="166"/><line style="stroke: #A80036; stroke-width: 1.5;" x1="326" x2="405" y1="174" y2="174"/><rect fill="#FEFECE" filter="url(#f1)" height="48" style="stroke: #A80036; stroke-width: 1.5;" width="81" x="484" y="8"/><ellipse cx="499" cy="24" fill="#ADD1B2" rx="11" ry="11" style="stroke: #A80036; stroke-width: 1.0;"/><path d="M501.3438,19.6719 L501.5156,19.75 C501.7344,19.4375 501.9375,19.3438 502.2344,19.3438 C502.5313,19.3438 502.8125,19.4844 502.9688,19.75 C503.0625,19.9063 503.0781,20.0313 503.0781,20.4688 L503.0781,21.8906 C503.0781,22.3125 503.0469,22.5 502.9375,22.6563 C502.7656,22.875 502.5,23.0156 502.2344,23.0156 C502.0156,23.0156 501.7813,22.9063 501.6406,22.7656 C501.5,22.6406 501.4688,22.5156 501.4063,22.1094 C501.3125,21.7031 501.1406,21.4844 500.6563,21.2031 C500.1875,20.9531 499.5781,20.7969 499,20.7969 C497.2656,20.7969 496.0156,22.1094 496.0156,23.8906 L496.0156,24.9844 C496.0156,26.6875 497.3125,27.7813 499.3594,27.7813 C500.125,27.7813 500.8125,27.6563 501.2344,27.3906 C501.4219,27.2969 501.4219,27.2969 501.875,26.8125 C502.0625,26.625 502.2656,26.5469 502.4844,26.5469 C502.9531,26.5469 503.3438,26.9375 503.3438,27.3906 C503.3438,27.7813 503.0156,28.2344 502.4375,28.6406 C501.6875,29.1875 500.5313,29.4844 499.3125,29.4844 C496.4219,29.4844 494.3125,27.5938 494.3125,25.0156 L494.3125,23.8906 C494.3125,21.1719 496.3125,19.0938 498.9375,19.0938 C499.8125,19.0938 500.4063,19.2344 501.3438,19.6719 Z "/><text fill="#000000" font-family="sans-serif" font-size="12" lengthAdjust="spacingAndGlyphs" textLength="49" x="513" y="28.1543">Class07</text><line style="stroke: #A80036; stroke-width: 1.5;" x1="485" x2="564" y1="40" y2="40"/><line style="stroke: #A80036; stroke-width: 1.5;" x1="485" x2="564" y1="48" y2="48"/><rect fill="#FEFECE" filter="url(#f1)" height="48" style="stroke: #A80036; stroke-width: 1.5;" width="81" x="484" y="134"/><ellipse cx="499" cy="150" fill="#ADD1B2" rx="11" ry="11" style="stroke: #A80036; stroke-width: 1.0;"/><path d="M501.3438,145.6719 L501.5156,145.75 C501.7344,145.4375 501.9375,145.3438 502.2344,145.3438 C502.5313,145.3438 502.8125,145.4844 502.9688,145.75 C503.0625,145.9063 503.0781,146.0313 503.0781,146.4688 L503.0781,147.8906 C503.0781,148.3125 503.0469,148.5 502.9375,148.6563 C502.7656,148.875 502.5,149.0156 502.2344,149.0156 C502.0156,149.0156 501.7813,148.9063 501.6406,148.7656 C501.5,148.6406 501.4688,148.5156 501.4063,148.1094 C501.3125,147.7031 501.1406,147.4844 500.6563,147.2031 C500.1875,146.9531 499.5781,146.7969 499,146.7969 C497.2656,146.7969 496.0156,148.1094 496.0156,149.8906 L496.0156,150.9844 C496.0156,152.6875 497.3125,153.7813 499.3594,153.7813 C500.125,153.7813 500.8125,153.6563 501.2344,153.3906 C501.4219,153.2969 501.4219,153.2969 501.875,152.8125 C502.0625,152.625 502.2656,152.5469 502.4844,152.5469 C502.9531,152.5469 503.3438,152.9375 503.3438,153.3906 C503.3438,153.7813 503.0156,154.2344 502.4375,154.6406 C501.6875,155.1875 500.5313,155.4844 499.3125,155.4844 C496.4219,155.4844 494.3125,153.5938 494.3125,151.0156 L494.3125,149.8906 C494.3125,147.1719 496.3125,145.0938 498.9375,145.0938 C499.8125,145.0938 500.4063,145.2344 501.3438,145.6719 Z "/><text fill="#000000" font-family="sans-serif" font-size="12" lengthAdjust="spacingAndGlyphs" textLength="49" x="513" y="154.1543">Class08</text><line style="stroke: #A80036; stroke-width: 1.5;" x1="485" x2="564" y1="166" y2="166"/><line style="stroke: #A80036; stroke-width: 1.5;" x1="485" x2="564" y1="174" y2="174"/><rect fill="#FEFECE" filter="url(#f1)" height="48" style="stroke: #A80036; stroke-width: 1.5;" width="81" x="636" y="8"/><ellipse cx="651" cy="24" fill="#ADD1B2" rx="11" ry="11" style="stroke: #A80036; stroke-width: 1.0;"/><path d="M653.3438,19.6719 L653.5156,19.75 C653.7344,19.4375 653.9375,19.3438 654.2344,19.3438 C654.5313,19.3438 654.8125,19.4844 654.9688,19.75 C655.0625,19.9063 655.0781,20.0313 655.0781,20.4688 L655.0781,21.8906 C655.0781,22.3125 655.0469,22.5 654.9375,22.6563 C654.7656,22.875 654.5,23.0156 654.2344,23.0156 C654.0156,23.0156 653.7813,22.9063 653.6406,22.7656 C653.5,22.6406 653.4688,22.5156 653.4063,22.1094 C653.3125,21.7031 653.1406,21.4844 652.6563,21.2031 C652.1875,20.9531 651.5781,20.7969 651,20.7969 C649.2656,20.7969 648.0156,22.1094 648.0156,23.8906 L648.0156,24.9844 C648.0156,26.6875 649.3125,27.7813 651.3594,27.7813 C652.125,27.7813 652.8125,27.6563 653.2344,27.3906 C653.4219,27.2969 653.4219,27.2969 653.875,26.8125 C654.0625,26.625 654.2656,26.5469 654.4844,26.5469 C654.9531,26.5469 655.3438,26.9375 655.3438,27.3906 C655.3438,27.7813 655.0156,28.2344 654.4375,28.6406 C653.6875,29.1875 652.5313,29.4844 651.3125,29.4844 C648.4219,29.4844 646.3125,27.5938 646.3125,25.0156 L646.3125,23.8906 C646.3125,21.1719 648.3125,19.0938 650.9375,19.0938 C651.8125,19.0938 652.4063,19.2344 653.3438,19.6719 Z "/><text fill="#000000" font-family="sans-serif" font-size="12" lengthAdjust="spacingAndGlyphs" textLength="49" x="665" y="28.1543">Class09</text><line style="stroke: #A80036; stroke-width: 1.5;" x1="637" x2="716" y1="40" y2="40"/><line style="stroke: #A80036; stroke-width: 1.5;" x1="637" x2="716" y1="48" y2="48"/><rect fill="#FEFECE" filter="url(#f1)" height="48" style="stroke: #A80036; stroke-width: 1.5;" width="81" x="636" y="134"/><ellipse cx="651" cy="150" fill="#ADD1B2" rx="11" ry="11" style="stroke: #A80036; stroke-width: 1.0;"/><path d="M653.3438,145.6719 L653.5156,145.75 C653.7344,145.4375 653.9375,145.3438 654.2344,145.3438 C654.5313,145.3438 654.8125,145.4844 654.9688,145.75 C655.0625,145.9063 655.0781,146.0313 655.0781,146.4688 L655.0781,147.8906 C655.0781,148.3125 655.0469,148.5 654.9375,148.6563 C654.7656,148.875 654.5,149.0156 654.2344,149.0156 C654.0156,149.0156 653.7813,148.9063 653.6406,148.7656 C653.5,148.6406 653.4688,148.5156 653.4063,148.1094 C653.3125,147.7031 653.1406,147.4844 652.6563,147.2031 C652.1875,146.9531 651.5781,146.7969 651,146.7969 C649.2656,146.7969 648.0156,148.1094 648.0156,149.8906 L648.0156,150.9844 C648.0156,152.6875 649.3125,153.7813 651.3594,153.7813 C652.125,153.7813 652.8125,153.6563 653.2344,153.3906 C653.4219,153.2969 653.4219,153.2969 653.875,152.8125 C654.0625,152.625 654.2656,152.5469 654.4844,152.5469 C654.9531,152.5469 655.3438,152.9375 655.3438,153.3906 C655.3438,153.7813 655.0156,154.2344 654.4375,154.6406 C653.6875,155.1875 652.5313,155.4844 651.3125,155.4844 C648.4219,155.4844 646.3125,153.5938 646.3125,151.0156 L646.3125,149.8906 C646.3125,147.1719 648.3125,145.0938 650.9375,145.0938 C651.8125,145.0938 652.4063,145.2344 653.3438,145.6719 Z "/><text fill="#000000" font-family="sans-serif" font-size="12" lengthAdjust="spacingAndGlyphs" textLength="49" x="665" y="154.1543">Class10</text><line style="stroke: #A80036; stroke-width: 1.5;" x1="637" x2="716" y1="166" y2="166"/><line style="stroke: #A80036; stroke-width: 1.5;" x1="637" x2="716" y1="174" y2="174"/><rect fill="#FEFECE" filter="url(#f1)" height="48" style="stroke: #A80036; stroke-width: 1.5;" width="81" x="793" y="8"/><ellipse cx="808" cy="24" fill="#ADD1B2" rx="11" ry="11" style="stroke: #A80036; stroke-width: 1.0;"/><path d="M810.3438,19.6719 L810.5156,19.75 C810.7344,19.4375 810.9375,19.3438 811.2344,19.3438 C811.5313,19.3438 811.8125,19.4844 811.9688,19.75 C812.0625,19.9063 812.0781,20.0313 812.0781,20.4688 L812.0781,21.8906 C812.0781,22.3125 812.0469,22.5 811.9375,22.6563 C811.7656,22.875 811.5,23.0156 811.2344,23.0156 C811.0156,23.0156 810.7813,22.9063 810.6406,22.7656 C810.5,22.6406 810.4688,22.5156 810.4063,22.1094 C810.3125,21.7031 810.1406,21.4844 809.6563,21.2031 C809.1875,20.9531 808.5781,20.7969 808,20.7969 C806.2656,20.7969 805.0156,22.1094 805.0156,23.8906 L805.0156,24.9844 C805.0156,26.6875 806.3125,27.7813 808.3594,27.7813 C809.125,27.7813 809.8125,27.6563 810.2344,27.3906 C810.4219,27.2969 810.4219,27.2969 810.875,26.8125 C811.0625,26.625 811.2656,26.5469 811.4844,26.5469 C811.9531,26.5469 812.3438,26.9375 812.3438,27.3906 C812.3438,27.7813 812.0156,28.2344 811.4375,28.6406 C810.6875,29.1875 809.5313,29.4844 808.3125,29.4844 C805.4219,29.4844 803.3125,27.5938 803.3125,25.0156 L803.3125,23.8906 C803.3125,21.1719 805.3125,19.0938 807.9375,19.0938 C808.8125,19.0938 809.4063,19.2344 810.3438,19.6719 Z "/><text fill="#000000" font-family="sans-serif" font-size="12" lengthAdjust="spacingAndGlyphs" textLength="49" x="822" y="28.1543">Class11</text><line style="stroke: #A80036; stroke-width: 1.5;" x1="794" x2="873" y1="40" y2="40"/><line style="stroke: #A80036; stroke-width: 1.5;" x1="794" x2="873" y1="48" y2="48"/><rect fill="#FEFECE" filter="url(#f1)" height="48" style="stroke: #A80036; stroke-width: 1.5;" width="81" x="793" y="134"/><ellipse cx="808" cy="150" fill="#ADD1B2" rx="11" ry="11" style="stroke: #A80036; stroke-width: 1.0;"/><path d="M810.3438,145.6719 L810.5156,145.75 C810.7344,145.4375 810.9375,145.3438 811.2344,145.3438 C811.5313,145.3438 811.8125,145.4844 811.9688,145.75 C812.0625,145.9063 812.0781,146.0313 812.0781,146.4688 L812.0781,147.8906 C812.0781,148.3125 812.0469,148.5 811.9375,148.6563 C811.7656,148.875 811.5,149.0156 811.2344,149.0156 C811.0156,149.0156 810.7813,148.9063 810.6406,148.7656 C810.5,148.6406 810.4688,148.5156 810.4063,148.1094 C810.3125,147.7031 810.1406,147.4844 809.6563,147.2031 C809.1875,146.9531 808.5781,146.7969 808,146.7969 C806.2656,146.7969 805.0156,148.1094 805.0156,149.8906 L805.0156,150.9844 C805.0156,152.6875 806.3125,153.7813 808.3594,153.7813 C809.125,153.7813 809.8125,153.6563 810.2344,153.3906 C810.4219,153.2969 810.4219,153.2969 810.875,152.8125 C811.0625,152.625 811.2656,152.5469 811.4844,152.5469 C811.9531,152.5469 812.3438,152.9375 812.3438,153.3906 C812.3438,153.7813 812.0156,154.2344 811.4375,154.6406 C810.6875,155.1875 809.5313,155.4844 808.3125,155.4844 C805.4219,155.4844 803.3125,153.5938 803.3125,151.0156 L803.3125,149.8906 C803.3125,147.1719 805.3125,145.0938 807.9375,145.0938 C808.8125,145.0938 809.4063,145.2344 810.3438,145.6719 Z "/><text fill="#000000" font-family="sans-serif" font-size="12" lengthAdjust="spacingAndGlyphs" textLength="49" x="822" y="154.1543">Class12</text><line style="stroke: #A80036; stroke-width: 1.5;" x1="794" x2="873" y1="166" y2="166"/><line style="stroke: #A80036; stroke-width: 1.5;" x1="794" x2="873" y1="174" y2="174"/><path d="M43.5839,76.629 C43.4505,79.799 43.3363,82.9484 43.25,86 C42.7966,102.0322 43.5773,120.0907 44.4557,133.9833 " fill="none" style="stroke: #A80036; stroke-width: 1.0; stroke-dasharray: 7.0,7.0;"/><polygon fill="none" points="36.6168,75.814,44.6515,56.207,50.5977,76.545,36.6168,75.814" style="stroke: #A80036; stroke-width: 1.0;"/><text fill="#000000" font-family="sans-serif" font-size="13" lengthAdjust="spacingAndGlyphs" textLength="105" x="44.25" y="99.0669">实现(Realization)</text><path d="M191.584,76.629 C191.45,79.799 191.336,82.9484 191.25,86 C190.797,102.0322 191.577,120.0907 192.456,133.9833 " fill="none" style="stroke: #A80036; stroke-width: 1.0;"/><polygon fill="none" points="184.617,75.814,192.652,56.207,198.598,76.545,184.617,75.814" style="stroke: #A80036; stroke-width: 1.0;"/><text fill="#000000" font-family="sans-serif" font-size="13" lengthAdjust="spacingAndGlyphs" textLength="128" x="192.25" y="99.0669">泛化(Generalization)</text><path d="M363.456,56.017 C362.577,69.909 361.797,87.9678 362.25,104 C362.474,111.9342 362.887,120.5285 363.337,128.4408 " fill="none" style="stroke: #A80036; stroke-width: 1.0; stroke-dasharray: 7.0,7.0;"/><polygon fill="#A80036" points="363.652,133.7931,367.1164,124.5737,363.3583,128.8017,359.1302,125.0436,363.652,133.7931" style="stroke: #A80036; stroke-width: 1.0;"/><text fill="#000000" font-family="sans-serif" font-size="13" lengthAdjust="spacingAndGlyphs" textLength="116" x="363.25" y="99.0669">依赖(Dependency)</text><path d="M522.652,56.207 C522.088,65.47 521.526,76.235 521.25,86 C520.85,100.1534 521.411,115.8861 522.153,128.9375 " fill="none" style="stroke: #A80036; stroke-width: 1.0;"/><polygon fill="#A80036" points="522.456,133.9833,525.9094,124.7597,522.1563,128.9923,517.9238,125.2392,522.456,133.9833" style="stroke: #A80036; stroke-width: 1.0;"/><text fill="#000000" font-family="sans-serif" font-size="13" lengthAdjust="spacingAndGlyphs" textLength="109" x="522.25" y="99.0669">关联(Association)</text><path d="M673.729,69.329 C673.223,80.453 672.931,92.7274 673.25,104 C673.401,109.3403 673.637,114.9797 673.913,120.5089 " fill="none" style="stroke: #A80036; stroke-width: 1.0;"/><polygon fill="#A80036" points="674.652,133.7931,678.1462,124.5849,674.3744,128.8008,670.1585,125.029,674.652,133.7931" style="stroke: #A80036; stroke-width: 1.0;"/><line style="stroke: #A80036; stroke-width: 1.0;" x1="674.3744" x2="673.93" y1="128.8008" y2="120.8131"/><polygon fill="none" points="674.456,56.017,670.1349,61.79,673.8019,67.9992,678.123,62.2261,674.456,56.017" style="stroke: #A80036; stroke-width: 1.0;"/><text fill="#000000" font-family="sans-serif" font-size="13" lengthAdjust="spacingAndGlyphs" textLength="114" x="674.25" y="99.0669">聚合(Aggregation)</text><path d="M833.25,69.212 C833.25,85.2983 833.25,104.2027 833.25,120.3406 " fill="none" style="stroke: #A80036; stroke-width: 1.0;"/><polygon fill="#A80036" points="833.25,133.6697,837.25,124.6697,833.25,128.6697,829.25,124.6697,833.25,133.6697" style="stroke: #A80036; stroke-width: 1.0;"/><line style="stroke: #A80036; stroke-width: 1.0;" x1="833.25" x2="833.25" y1="128.6697" y2="120.6698"/><polygon fill="#A80036" points="833.25,56.033,829.25,62.033,833.25,68.033,837.25,62.033,833.25,56.033" style="stroke: #A80036; stroke-width: 1.0;"/><text fill="#000000" font-family="sans-serif" font-size="13" lengthAdjust="spacingAndGlyphs" textLength="116" x="834.25" y="99.0669">组合(Composition)</text></g></svg>