<?xml version="1.0" encoding="UTF-8" standalone="yes"?><svg xmlns="http://www.w3.org/2000/svg" xmlns:xlink="http://www.w3.org/1999/xlink" height="188pt" style="width:121px;height:188px;" version="1.1" viewBox="0 0 121 188" width="121pt"><defs><filter height="300%" id="f1" width="300%" x="-1" y="-1"><feGaussianBlur result="blurOut" stdDeviation="2.0"/><feColorMatrix in="blurOut" result="blurOut2" type="matrix" values="0 0 0 0 0 0 0 0 0 0 0 0 0 0 0 0 0 0 .4 0"/><feOffset dx="4.0" dy="4.0" in="blurOut2" result="blurOut3"/><feBlend in="SourceGraphic" in2="blurOut3" mode="normal"/></filter></defs><g><rect fill="#FEFECE" filter="url(#f1)" height="171.2422" style="stroke: #A80036; stroke-width: 1.5;" width="106" x="6" y="8.5"/><ellipse cx="41.25" cy="24.5" fill="#ADD1B2" rx="11" ry="11" style="stroke: #A80036; stroke-width: 1.0;"/><path d="M43.5938,20.1719 L43.7656,20.25 C43.9844,19.9375 44.1875,19.8438 44.4844,19.8438 C44.7813,19.8438 45.0625,19.9844 45.2188,20.25 C45.3125,20.4063 45.3281,20.5313 45.3281,20.9688 L45.3281,22.3906 C45.3281,22.8125 45.2969,23 45.1875,23.1563 C45.0156,23.375 44.75,23.5156 44.4844,23.5156 C44.2656,23.5156 44.0313,23.4063 43.8906,23.2656 C43.75,23.1406 43.7188,23.0156 43.6563,22.6094 C43.5625,22.2031 43.3906,21.9844 42.9063,21.7031 C42.4375,21.4531 41.8281,21.2969 41.25,21.2969 C39.5156,21.2969 38.2656,22.6094 38.2656,24.3906 L38.2656,25.4844 C38.2656,27.1875 39.5625,28.2813 41.6094,28.2813 C42.375,28.2813 43.0625,28.1563 43.4844,27.8906 C43.6719,27.7969 43.6719,27.7969 44.125,27.3125 C44.3125,27.125 44.5156,27.0469 44.7344,27.0469 C45.2031,27.0469 45.5938,27.4375 45.5938,27.8906 C45.5938,28.2813 45.2656,28.7344 44.6875,29.1406 C43.9375,29.6875 42.7813,29.9844 41.5625,29.9844 C38.6719,29.9844 36.5625,28.0938 36.5625,25.5156 L36.5625,24.3906 C36.5625,21.6719 38.5625,19.5938 41.1875,19.5938 C42.0625,19.5938 42.6563,19.7344 43.5938,20.1719 Z "/><text fill="#000000" font-family="sans-serif" font-size="12" lengthAdjust="spacingAndGlyphs" textLength="29" x="59.75" y="28.6543">User</text><line style="stroke: #A80036; stroke-width: 1.5;" x1="7" x2="111" y1="40.5" y2="40.5"/><ellipse cx="17" cy="69.207" fill="#84BE84" rx="3" ry="3" style="stroke: #038048; stroke-width: 1.0;"/><text fill="#000000" font-family="sans-serif" font-size="11" lengthAdjust="spacingAndGlyphs" textLength="59" x="26" y="71.5151">getName()</text><ellipse cx="17" cy="82.0117" fill="#84BE84" rx="3" ry="3" style="stroke: #038048; stroke-width: 1.0;"/><text fill="#000000" font-family="sans-serif" font-size="11" lengthAdjust="spacingAndGlyphs" textLength="73" x="26" y="84.3198">getAddress()</text><line style="stroke: #A80036; stroke-width: 1.0; stroke-dasharray: 1.0,2.0;" x1="7" x2="19.5" y1="54.9023" y2="54.9023"/><text fill="#000000" font-family="sans-serif" font-size="11" lengthAdjust="spacingAndGlyphs" textLength="79" x="19.5" y="58.2104">Simple Getter</text><line style="stroke: #A80036; stroke-width: 1.0; stroke-dasharray: 1.0,2.0;" x1="98.5" x2="111" y1="54.9023" y2="54.9023"/><ellipse cx="17" cy="111.6211" fill="#84BE84" rx="3" ry="3" style="stroke: #038048; stroke-width: 1.0;"/><text fill="#000000" font-family="sans-serif" font-size="11" lengthAdjust="spacingAndGlyphs" textLength="59" x="26" y="113.9292">setName()</text><line style="stroke: #A80036; stroke-width: 1.0; stroke-dasharray: 1.0,2.0;" x1="7" x2="23.5" y1="97.3164" y2="97.3164"/><text fill="#000000" font-family="sans-serif" font-size="11" lengthAdjust="spacingAndGlyphs" textLength="71" x="23.5" y="100.6245">Some setter</text><line style="stroke: #A80036; stroke-width: 1.0; stroke-dasharray: 1.0,2.0;" x1="94.5" x2="111" y1="97.3164" y2="97.3164"/><text fill="#000000" font-family="sans-serif" font-size="11" lengthAdjust="spacingAndGlyphs" textLength="39" x="12" y="143.5386">int age</text><line style="stroke: #A80036; stroke-width: 1.5;" x1="7" x2="25" y1="126.9258" y2="126.9258"/><text fill="#000000" font-family="sans-serif" font-size="11" lengthAdjust="spacingAndGlyphs" textLength="68" x="25" y="130.2339">private data</text><line style="stroke: #A80036; stroke-width: 1.5;" x1="93" x2="111" y1="126.9258" y2="126.9258"/><text fill="#000000" font-family="sans-serif" font-size="11" lengthAdjust="spacingAndGlyphs" textLength="94" x="12" y="173.1479">String password</text><line style="stroke: #A80036; stroke-width: 1.0;" x1="7" x2="31" y1="156.5352" y2="156.5352"/><text fill="#000000" font-family="sans-serif" font-size="11" lengthAdjust="spacingAndGlyphs" textLength="56" x="31" y="159.8433">encrypted</text><line style="stroke: #A80036; stroke-width: 1.0;" x1="87" x2="111" y1="156.5352" y2="156.5352"/></g></svg>